<svg id="SvgjsSvg1001" width="288" height="288" xmlns="http://www.w3.org/2000/svg" version="1.1" xmlns:xlink="http://www.w3.org/1999/xlink" xmlns:svgjs="http://svgjs.com/svgjs"><defs id="SvgjsDefs1002"></defs><g id="SvgjsG1008" transform="matrix(0.9167,0,0,0.9167,11.995199771209712,11.995082859370342)"><svg xmlns="http://www.w3.org/2000/svg" width="288" height="288" viewBox="0 0 25 25"><g transform="translate(0 -1027.362)" fill="#ffffff" class="color000 svgShape"><g fill="#ffffff" transform="translate(3.991 -5.503)" class="colorfff svgShape"><circle cx="8.509" cy="1045.365" r="12.5" fill="#0baaff" fill-rule="evenodd" class="colorffa40b svgShape"></circle><path fill-rule="evenodd" d="M 4,2 4,3 3,3 3,4 4,4 4,5 5,5 5,4 6,4 6,3 5,3 5,2 4,2 Z M 8,5 7.7773438,5.1132812 2.8828125,7.5605469 8,10.119141 13.119141,7.5605469 8,5 Z M 8.0019531,6.1191406 10.882812,7.5605469 8,9 5.1191406,7.5605469 8.0019531,6.1191406 Z M 4.984375,9.5390625 2.8828125,10.5 8,13.058594 13.117188,10.5 11.019531,9.546875 9.9023438,10.105469 10.882812,10.5 8,11.941406 5.1171875,10.5 6.1015625,10.097656 4.984375,9.5390625 Z" color="#000" font-family="sans-serif" font-weight="400" overflow="visible" transform="translate(1.013 1037.863)" white-space="normal" style="line-height:normal;text-indent:0;text-align:start;text-decoration-line:none;text-decoration-style:solid;text-decoration-color:#000;text-transform:none;block-progression:tb;isolation:auto;mix-blend-mode:normal" fill="#ffffff" class="color000 svgShape"></path></g></g></svg></g></svg>